<svg xmlns="http://www.w3.org/2000/svg" version="1.1" xmlns:xlink="http://www.w3.org/1999/xlink" viewBox="0 0 9.35954949197897 9.6462905817207"><g transform="matrix(1,0,0,1,0.7918018455988607,7.774488736121841)"><rect width="9.6462905817207" height="9.6462905817207" x="-0.9351723904697256" y="-7.774488736121841" fill="#fffef5"></rect><g clip-path="url(#SvgjsClipPath1002)"><g clip-path="url(#SvgjsClipPath10009275b70b-616b-4411-84e9-1931d101fa25)"><path d=" M 6.939137816491367 -5.041305527805145 C 6.924340702446263 -5.072749395150994 6.8869779894823715 -5.0864367256427165 6.855534122136522 -5.071639611597611 C 6.824090254790675 -5.0568424975525055 6.8107728521500785 -5.019479784588614 6.8252000383440565 -4.988035917242765 C 7.026810717208617 -4.5574398985301965 7.128910804119847 -4.095769940322906 7.128910804119847 -3.6167133731126166 C 7.128910804119847 -3.222370283810556 7.058624512405595 -2.8372753907866883 6.920641423934987 -2.471416746021454 C 6.908433804847774 -2.4388630951222225 6.92471063029739 -2.4026101657117147 6.957264281196623 -2.3900326187733745 C 6.964662838219175 -2.387073195964354 6.972061395241729 -2.3859634124109705 6.9798298801154095 -2.3859634124109705 C 7.004984973992089 -2.3859634124109705 7.029400212166513 -2.401500382158331 7.038648408444703 -2.4266554760350108 C 7.182180414682227 -2.8065713791430937 7.25505620135437 -3.2068333140631955 7.25505620135437 -3.616343445261488 C 7.254686273503243 -4.114636260730416 7.14851698022961 -4.593692827940705 6.939137816491367 -5.041305527805145 Z" fill="#a5497e" transform="matrix(1,0,0,1,0,0)" fill-rule="nonzero"></path></g><g clip-path="url(#SvgjsClipPath10009275b70b-616b-4411-84e9-1931d101fa25)"><path d=" M 6.485606271008886 -5.758225703290504 C 6.463410599941227 -5.785230436422822 6.423828319870571 -5.788929714934098 6.3971935145893815 -5.76673404386644 C 6.370558709308191 -5.744538372798782 6.366489502945788 -5.704956092728125 6.388685174013447 -5.678321287446935 C 6.473028724070546 -5.5762212005357075 6.551823356360734 -5.467462412304182 6.6232194316283675 -5.355374273412508 C 6.635427050715579 -5.336507953004999 6.655403154676471 -5.326519901024553 6.6761191143396195 -5.326519901024553 C 6.687586877724577 -5.326519901024553 6.69942456896066 -5.329849251684701 6.710152476643362 -5.336138025153871 C 6.739376776882445 -5.355004345561381 6.748255045309509 -5.393846769929782 6.729388724902 -5.423071070168866 C 6.655403154676471 -5.53959834327407 6.573279171726137 -5.652056410016873 6.485606271008886 -5.758225703290504 Z" fill="#a5497e" transform="matrix(1,0,0,1,0,0)" fill-rule="nonzero"></path></g><g clip-path="url(#SvgjsClipPath10009275b70b-616b-4411-84e9-1931d101fa25)"><path d=" M 1.94955096048181 -6.2295137856271126 C 1.9621285074201498 -6.2295137856271126 1.9754459100607449 -6.2335829919895165 1.9861738177434454 -6.241351476863197 C 2.541805450137155 -6.644202906741192 3.198797313739838 -6.857281348990711 3.887233044688368 -6.857281348990711 C 4.575668775636899 -6.857281348990711 5.233030567090709 -6.644202906741192 5.788292271633292 -6.241351476863197 C 5.816406788318992 -6.221005445051177 5.855619140538521 -6.226924290669219 5.875965172350541 -6.255408735206047 C 5.896311204162562 -6.283893179742875 5.89039235854452 -6.322735604111276 5.861907914007692 -6.343081635923297 C 5.285560321950833 -6.761470035548653 4.602673508769217 -6.98268689052298 3.887602972539497 -6.98268689052298 C 3.1725324363097767 -6.98268689052298 2.489645623128159 -6.761470035548653 1.9125581753690462 -6.342711708072169 C 1.8844436586833457 -6.32236567626015 1.8781548852141758 -6.282783396189492 1.8985009170261966 -6.25503880735492 C 1.9107085361134082 -6.238761981905303 1.929944784372045 -6.2295137856271126 1.94955096048181 -6.2295137856271126 Z" fill="#a5497e" transform="matrix(1,0,0,1,0,0)" fill-rule="nonzero"></path></g><g clip-path="url(#SvgjsClipPath10009275b70b-616b-4411-84e9-1931d101fa25)"><path d=" M 1.3658048114024 -5.847748243263392 C 1.27813191068515 -5.748607579161185 1.1956379998836875 -5.643178141589809 1.1201727182536492 -5.534789281209411 C 1.1001966142927566 -5.506304836672584 1.1075951713153094 -5.467092484453054 1.1360796158521382 -5.447116380492161 C 1.147177451385967 -5.439347895618481 1.1597549983243067 -5.435648617107205 1.1719626174115183 -5.435648617107205 C 1.191938721372411 -5.435648617107205 1.2115448974821752 -5.444896813385395 1.223752516569388 -5.462653350239521 C 1.2962583753904044 -5.566973004257515 1.3761627912339742 -5.668703163317615 1.460506341291075 -5.764144548908546 C 1.4834418680609893 -5.7904094263386074 1.4808523731030954 -5.829991706409265 1.4553273513752887 -5.853297161030306 C 1.4286925460940978 -5.875862759949092 1.3891102660234411 -5.8736431928423265 1.3658048114024 -5.847748243263392 Z" fill="#a5497e" transform="matrix(1,0,0,1,0,0)" fill-rule="nonzero"></path></g><g clip-path="url(#SvgjsClipPath10009275b70b-616b-4411-84e9-1931d101fa25)"><path d=" M 0.6466650688102751 -3.6167133731126166 C 0.6466650688102751 -3.995889420518444 0.7114024427576114 -4.367296983050592 0.8397674070989015 -4.7209480087286115 C 0.8516050983349859 -4.753501659627844 0.8349583450342426 -4.789754589038352 0.8020347662838829 -4.801592280274436 C 0.7694811153846511 -4.813429971510521 0.7332281859741426 -4.796783218209777 0.721390494738058 -4.763859639459417 C 0.5882164683321087 -4.396521283289675 0.5208895994268788 -4.01068653456355 0.5208895994268788 -3.6170833009637446 C 0.5208895994268788 -2.926797930759575 0.7284191239094828 -2.2635172936877233 1.1205426461047774 -1.698637465015822 C 1.132750265191989 -1.6812508560128236 1.152356441301754 -1.6716327318835047 1.1723325452626465 -1.6716327318835047 C 1.1845401643498583 -1.6716327318835047 1.197117711288198 -1.675332010394782 1.2082155468220268 -1.6831004952684623 C 1.236699991358855 -1.7030765992293544 1.24372862053028 -1.7422889514488844 1.2241224444205159 -1.770773395985712 C 0.8464261084191987 -2.3138274814410815 0.6466650688102751 -2.952322952487383 0.6466650688102751 -3.6167133731126166 Z" fill="#a5497e" transform="matrix(1,0,0,1,0,0)" fill-rule="nonzero"></path></g><g clip-path="url(#SvgjsClipPath10009275b70b-616b-4411-84e9-1931d101fa25)"><path d=" M 6.457861682174314 -1.642408431644422 C 5.8386024593866495 -0.8374454275906853 4.901945140331475 -0.37577546938339523 3.887602972539497 -0.37577546938339523 C 3.0737617000586974 -0.37577546938339523 2.2954335012861504 -0.6787463794569293 1.6965203103105075 -1.228829094083725 C 1.6706253607315726 -1.252134548704766 1.6310430806609164 -1.2510247651513824 1.607367698188747 -1.2251298155724486 C 1.5836923157165785 -1.199234865993514 1.5859118828233447 -1.1596525859228572 1.6110669767000239 -1.1359772034506879 C 2.2336555501478355 -0.5644386734584899 3.0419479048617206 -0.25 3.887233044688369 -0.25 C 4.940787564699877 -0.25 5.914067741016689 -0.7294264950614169 6.557372274127648 -1.565463438609875 C 6.578458161641924 -1.5932080274444473 6.573279171726137 -1.6324203796639774 6.545904510742693 -1.6535062671782512 C 6.518529849759246 -1.6749620825436544 6.478947569688588 -1.6701530204789954 6.457861682174314 -1.642408431644422 Z" fill="#a5497e" transform="matrix(1,0,0,1,0,0)" fill-rule="nonzero"></path></g><g clip-path="url(#SvgjsClipPath10009275b70b-616b-4411-84e9-1931d101fa25)"><path d=" M 3.887602972539497 -6.245050755374473 C 2.5103615827913073 -6.245050755374473 1.3776425026384853 -5.181138255531391 1.267773930853577 -3.83238131032003 L 1.837092893739009 -3.83238131032003 C 1.9451118262682792 -4.868549221328539 2.8236904726964154 -5.678691215298063 3.887602972539497 -5.678691215298063 C 5.0240213312035955 -5.678691215298063 5.949210886873814 -4.753871587478971 5.949210886873814 -3.6167133731126166 C 5.949210886873814 -2.480295014448518 5.024391259054723 -1.5551054587783009 3.887602972539497 -1.5551054587783009 C 2.8236904726964145 -1.5551054587783009 1.9443719705660234 -2.365247452747824 1.837092893739009 -3.4014153637563322 L 1.2681438587047045 -3.4014153637563322 C 1.37838235834074 -2.052658418544971 2.5111014384935624 -0.9887459187018894 3.8879729003906243 -0.9887459187018894 C 5.337350221108704 -0.9887459187018894 6.516310282652479 -2.168075908096794 6.516310282652479 -3.6170833009637446 C 6.515570426950225 -5.066090693830697 5.337350221108704 -6.245050755374473 3.887602972539497 -6.245050755374473 Z" fill="#390c14" transform="matrix(1,0,0,1,0,0)" fill-rule="nonzero"></path></g><g clip-path="url(#SvgjsClipPath10009275b70b-616b-4411-84e9-1931d101fa25)"><path d=" M 3.887602972539497 -2.6682183628213583 C 3.3641550631938917 -2.6682183628213583 2.9387380343971095 -3.0940053194692676 2.9387380343971095 -3.6163434452614895 C 2.9387380343971095 -4.139791354607096 3.3645249910450183 -4.565208383403878 3.887602972539497 -4.565208383403878 C 4.336695383808447 -4.565208383403878 4.713651864107508 -4.25187949349877 4.811312816805205 -3.832011382468903 L 5.387660408862063 -3.832011382468903 C 5.283340754844069 -4.565578311255005 4.650394201564683 -5.131567923480288 3.887602972539497 -5.131567923480288 C 3.0519359568421662 -5.131567923480288 2.372008566469571 -4.451640533107693 2.372008566469571 -3.6159735174103624 C 2.372008566469571 -2.7803065017130315 3.0519359568421662 -2.100749039191564 3.887602972539497 -2.100749039191564 C 4.650024273713556 -2.100749039191564 5.282600899141814 -2.665998795714592 5.387660408862063 -3.40030558020295 L 4.811312816805205 -3.40030558020295 C 4.713651864107508 -2.981917180577594 4.336695383808447 -2.6682183628213583 3.887602972539497 -2.6682183628213583 Z" fill="#a5497e" transform="matrix(1,0,0,1,0,0)" fill-rule="nonzero"></path></g><g clip-path="url(#SvgjsClipPath10009275b70b-616b-4411-84e9-1931d101fa25)"><path d=" M 4.210549986573923 -3.3448164025338043 C 4.170597778652137 -3.359243588727782 4.132125282134864 -3.3607233001322934 4.096982136277738 -3.3540645988119953 C 4.053700577695805 -3.345926186087188 4.009679163411616 -3.3588736608766547 3.9789751517680227 -3.390687456073631 L 3.9789751517680227 -3.390687456073631 C 3.944571861613152 -3.4265704576330123 3.932734170377069 -3.4798400681953923 3.9523403464868325 -3.525341193884091 C 3.9704668111920873 -3.5671430410615135 3.9800849353214063 -3.612644166750213 3.9800849353214063 -3.6607347873968057 C 3.9800849353214063 -3.6955080054028033 3.9749059454056197 -3.7288015120042903 3.9652878212763008 -3.760615307201267 C 3.9482711401244286 -3.8172142684237964 3.9608486870627684 -3.878992219562111 4.004500173495829 -3.9193143553350227 L 4.027065772414616 -3.9404002428492984 C 4.05924949546272 -3.9707343266417645 4.103270909746909 -3.9814622343244657 4.147292324031097 -3.978502811515445 C 4.169857922949884 -3.977023100110934 4.19390323327318 -3.979612595068827 4.218688399298731 -3.989230719198146 C 4.272697865563367 -4.0092068231590385 4.314869640591917 -4.0565575881033755 4.3267073318280005 -4.112786621474776 C 4.351862425704681 -4.2352327401980245 4.247172843835559 -4.341402033471656 4.125096652963441 -4.318096578850614 C 4.069607475294294 -4.3073686711679136 4.022256710349957 -4.267046535395001 4.000430967133426 -4.215256636237132 C 3.9908128430041088 -4.191581253764963 3.986373708790576 -4.169015654846177 3.9871135644928315 -4.147559839480774 C 3.9878534201950866 -4.1053880644522245 3.9745360175544917 -4.0646960008281825 3.9438320059108984 -4.036211556291356 L 3.9179370563319633 -4.012536173819188 C 3.8742855698989023 -3.9722140380462747 3.8117677630583326 -3.9637056974703393 3.75590865753806 -3.9851615128357416 C 3.695980345655382 -4.008097039605656 3.627913621047897 -4.015125668777081 3.556887473631391 -3.9999586268808485 C 3.4263029421833355 -3.971844110195148 3.320873504611959 -3.866044744772644 3.2938687714796413 -3.7350902854734604 C 3.247997717939814 -3.5116538633923677 3.4174246737562717 -3.3155921022947203 3.6327226831125556 -3.3155921022947203 C 3.6745245302899785 -3.3155921022947203 3.714106810360635 -3.3229906593172727 3.751099595473399 -3.336308061957869 C 3.7984503604177364 -3.353694670960867 3.8520898988312435 -3.341117124022527 3.886493188986114 -3.304494266760891 L 3.886493188986114 -3.304494266760891 C 3.9168272727785802 -3.273050399415043 3.9286649640146636 -3.228659057279725 3.9179370563319624 -3.1864872822511754 C 3.9090587879048986 -3.149864424989539 3.9090587879048986 -3.109912217067754 3.922376190545495 -3.0677404420392036 C 3.9471613565710464 -2.9896856654512716 4.0155980090296595 -2.9293874257174677 4.096242280575483 -2.9160700230768724 C 4.247912699537814 -2.8909149292001928 4.377757375283615 -3.0192798935414826 4.355191776364828 -3.1705803846526863 C 4.345203724384382 -3.2497449447940028 4.286755123906216 -3.3178116694014874 4.210549986573923 -3.3448164025338043 Z" fill="#390c14" transform="matrix(1,0,0,1,0,0)" fill-rule="nonzero"></path></g></g><g><path d=" M 0.297 0.005999999999999783 L 0.5055000000000001 0.7334999999999997 L 0.711 0.005999999999999783 L 1.0185 0.005999999999999783 L 0.651 1.0709999999999997 L 0.36 1.0709999999999997 L -0.012 0.005999999999999783 L 0.297 0.005999999999999783 M 1.541972900390625 1.0799999999999996 Q 1.420472900390625 1.0799999999999996 1.321472900390625 1.0342499999999997 Q 1.222472900390625 0.9884999999999997 1.151222900390625 0.9112499999999997 Q 1.0799729003906249 0.8339999999999997 1.041722900390625 0.7372499999999997 Q 1.0034729003906249 0.6404999999999997 1.0034729003906249 0.5369999999999997 Q 1.0034729003906249 0.43049999999999977 1.0439729003906248 0.3344999999999997 Q 1.084472900390625 0.2384999999999997 1.157222900390625 0.16274999999999973 Q 1.229972900390625 0.08699999999999974 1.329722900390625 0.04349999999999965 Q 1.429472900390625 -2.220446049250313e-16 1.5479729003906249 -2.220446049250313e-16 Q 1.669472900390625 -2.220446049250313e-16 1.768472900390625 0.045749999999999735 Q 1.867472900390625 0.09149999999999969 1.937972900390625 0.16949999999999976 Q 2.008472900390625 0.24749999999999972 2.046722900390625 0.3442499999999997 Q 2.0849729003906248 0.4409999999999997 2.0849729003906248 0.5429999999999997 Q 2.0849729003906248 0.6479999999999997 2.045222900390625 0.7439999999999998 Q 2.005472900390625 0.8399999999999997 1.932722900390625 0.9157499999999997 Q 1.8599729003906251 0.9914999999999997 1.760972900390625 1.0357499999999997 Q 1.661972900390625 1.0799999999999996 1.541972900390625 1.0799999999999996 M 1.300472900390625 0.5399999999999997 Q 1.300472900390625 0.5939999999999996 1.315472900390625 0.6442499999999998 Q 1.330472900390625 0.6944999999999997 1.3604729003906249 0.7342499999999997 Q 1.3904729003906249 0.7739999999999998 1.436222900390625 0.7972499999999998 Q 1.481972900390625 0.8204999999999998 1.544972900390625 0.8204999999999998 Q 1.607972900390625 0.8204999999999998 1.654472900390625 0.7964999999999998 Q 1.7009729003906249 0.7724999999999997 1.730222900390625 0.7312499999999997 Q 1.7594729003906249 0.6899999999999997 1.773722900390625 0.6397499999999997 Q 1.787972900390625 0.5894999999999997 1.787972900390625 0.5369999999999997 Q 1.787972900390625 0.48299999999999976 1.772972900390625 0.43349999999999966 Q 1.7579729003906248 0.3839999999999997 1.727972900390625 0.3442499999999997 Q 1.697972900390625 0.30449999999999966 1.651472900390625 0.2819999999999997 Q 1.604972900390625 0.25949999999999973 1.5434729003906251 0.25949999999999973 Q 1.480472900390625 0.25949999999999973 1.434722900390625 0.28349999999999975 Q 1.388972900390625 0.30749999999999966 1.358972900390625 0.3472499999999997 Q 1.328972900390625 0.3869999999999997 1.314722900390625 0.4372499999999997 Q 1.300472900390625 0.4874999999999997 1.300472900390625 0.5399999999999997 M 2.213994873046875 1.0709999999999997 L 2.213994873046875 0.005999999999999783 L 2.506494873046875 0.005999999999999783 L 2.506494873046875 1.0709999999999997 L 2.213994873046875 1.0709999999999997 M 2.694019775390625 1.0709999999999997 L 2.694019775390625 0.005999999999999783 L 3.103519775390625 0.005999999999999783 Q 3.280519775390625 0.005999999999999783 3.399769775390625 0.07724999999999971 Q 3.519019775390625 0.14849999999999974 3.5797697753906252 0.26924999999999977 Q 3.640519775390625 0.3899999999999997 3.640519775390625 0.5369999999999997 Q 3.640519775390625 0.6989999999999997 3.573769775390625 0.8189999999999997 Q 3.507019775390625 0.9389999999999997 3.386269775390625 1.0049999999999997 Q 3.265519775390625 1.0709999999999997 3.103519775390625 1.0709999999999997 L 2.694019775390625 1.0709999999999997 M 3.343519775390625 0.5369999999999997 Q 3.343519775390625 0.4544999999999997 3.315019775390625 0.39224999999999977 Q 3.2865197753906252 0.32999999999999974 3.232519775390625 0.29549999999999976 Q 3.178519775390625 0.2609999999999997 3.103519775390625 0.2609999999999997 L 2.986519775390625 0.2609999999999997 L 2.986519775390625 0.8159999999999997 L 3.103519775390625 0.8159999999999997 Q 3.180019775390625 0.8159999999999997 3.233269775390625 0.7799999999999998 Q 3.2865197753906252 0.7439999999999998 3.315019775390625 0.6802499999999998 Q 3.343519775390625 0.6164999999999997 3.343519775390625 0.5369999999999997 M 3.7140249023437497 0.5294999999999997 Q 3.7140249023437497 0.4319999999999997 3.7507749023437498 0.3382499999999997 Q 3.78752490234375 0.24449999999999972 3.85802490234375 0.1679999999999997 Q 3.92852490234375 0.09149999999999969 4.02977490234375 0.045749999999999735 Q 4.13102490234375 -2.220446049250313e-16 4.2585249023437495 -2.220446049250313e-16 Q 4.41152490234375 -2.220446049250313e-16 4.52552490234375 0.06374999999999975 Q 4.63952490234375 0.12749999999999972 4.69502490234375 0.2324999999999997 L 4.4715249023437496 0.39149999999999974 Q 4.45202490234375 0.33899999999999975 4.41527490234375 0.31049999999999967 Q 4.37852490234375 0.2819999999999997 4.33577490234375 0.2707499999999997 Q 4.29302490234375 0.25949999999999973 4.25252490234375 0.25949999999999973 Q 4.1895249023437495 0.25949999999999973 4.14377490234375 0.28424999999999967 Q 4.09802490234375 0.3089999999999997 4.068774902343749 0.3494999999999997 Q 4.03952490234375 0.3899999999999997 4.0252749023437495 0.43949999999999967 Q 4.01102490234375 0.48899999999999977 4.01102490234375 0.5384999999999998 Q 4.01102490234375 0.5939999999999996 4.02752490234375 0.6449999999999998 Q 4.04402490234375 0.6959999999999997 4.07552490234375 0.7357499999999997 Q 4.10702490234375 0.7754999999999997 4.15277490234375 0.7979999999999997 Q 4.19852490234375 0.8204999999999998 4.255524902343749 0.8204999999999998 Q 4.29602490234375 0.8204999999999998 4.33802490234375 0.8077499999999997 Q 4.38002490234375 0.7949999999999997 4.41452490234375 0.7664999999999997 Q 4.44902490234375 0.7379999999999998 4.46702490234375 0.6899999999999997 L 4.7055249023437495 0.8324999999999997 Q 4.67402490234375 0.9104999999999998 4.60052490234375 0.9659999999999997 Q 4.52702490234375 1.0214999999999996 4.43402490234375 1.0507499999999996 Q 4.34102490234375 1.0799999999999996 4.24952490234375 1.0799999999999996 Q 4.13102490234375 1.0799999999999996 4.03277490234375 1.0327499999999998 Q 3.9345249023437496 0.9854999999999997 3.8632749023437496 0.9067499999999997 Q 3.79202490234375 0.8279999999999997 3.75302490234375 0.7297499999999997 Q 3.7140249023437497 0.6314999999999997 3.7140249023437497 0.5294999999999997 M 5.278493408203125 1.0799999999999996 Q 5.150993408203125 1.0799999999999996 5.059493408203125 1.0379999999999998 Q 4.9679934082031245 0.9959999999999998 4.910243408203125 0.9224999999999998 Q 4.852493408203125 0.8489999999999998 4.825493408203125 0.7537499999999997 Q 4.798493408203125 0.6584999999999996 4.798493408203125 0.5534999999999998 L 4.798493408203125 0.005999999999999783 L 5.090993408203125 0.005999999999999783 L 5.090993408203125 0.5534999999999998 Q 5.090993408203125 0.6059999999999997 5.101493408203125 0.6539999999999997 Q 5.111993408203125 0.7019999999999997 5.134493408203125 0.7394999999999997 Q 5.156993408203125 0.7769999999999997 5.192243408203125 0.7987499999999997 Q 5.2274934082031255 0.8204999999999998 5.278493408203125 0.8204999999999998 Q 5.330993408203125 0.8204999999999998 5.366993408203125 0.7987499999999997 Q 5.402993408203125 0.7769999999999997 5.424743408203125 0.7387499999999998 Q 5.446493408203125 0.7004999999999997 5.456993408203125 0.6524999999999997 Q 5.467493408203125 0.6044999999999997 5.467493408203125 0.5534999999999998 L 5.467493408203125 0.005999999999999783 L 5.759993408203125 0.005999999999999783 L 5.759993408203125 0.5534999999999998 Q 5.759993408203125 0.6644999999999996 5.730743408203125 0.7604999999999997 Q 5.701493408203125 0.8564999999999997 5.642993408203125 0.9284999999999997 Q 5.584493408203125 1.0004999999999997 5.493743408203125 1.0402499999999997 Q 5.402993408203125 1.0799999999999996 5.278493408203125 1.0799999999999996 M 6.83846484375 0.7979999999999997 Q 6.83846484375 0.8939999999999997 6.7867148437500004 0.9539999999999997 Q 6.73496484375 1.0139999999999998 6.6479648437500005 1.0424999999999998 Q 6.56096484375 1.0709999999999997 6.45596484375 1.0709999999999997 L 5.93246484375 1.0709999999999997 L 5.93246484375 0.005999999999999783 L 6.55046484375 0.005999999999999783 Q 6.6254648437500006 0.005999999999999783 6.68021484375 0.045749999999999735 Q 6.73496484375 0.08549999999999969 6.7642148437500005 0.14849999999999974 Q 6.79346484375 0.2114999999999997 6.79346484375 0.2789999999999997 Q 6.79346484375 0.3524999999999997 6.75521484375 0.42149999999999976 Q 6.7169648437500005 0.4904999999999997 6.64046484375 0.5249999999999997 Q 6.73196484375 0.5519999999999997 6.78521484375 0.6194999999999997 Q 6.83846484375 0.6869999999999997 6.83846484375 0.7979999999999997 M 6.54146484375 0.7379999999999998 Q 6.54146484375 0.7109999999999997 6.5317148437500006 0.6907499999999998 Q 6.52196484375 0.6704999999999997 6.5054648437500004 0.6584999999999996 Q 6.48896484375 0.6464999999999997 6.46646484375 0.6464999999999997 L 6.2249648437500005 0.6464999999999997 L 6.2249648437500005 0.8249999999999997 L 6.45596484375 0.8249999999999997 Q 6.47996484375 0.8249999999999997 6.49946484375 0.8144999999999998 Q 6.51896484375 0.8039999999999997 6.5302148437500005 0.7844999999999998 Q 6.54146484375 0.7649999999999997 6.54146484375 0.7379999999999998 M 6.2249648437500005 0.25499999999999967 L 6.2249648437500005 0.41849999999999976 L 6.42446484375 0.41849999999999976 Q 6.44396484375 0.41849999999999976 6.46196484375 0.4117499999999997 Q 6.47996484375 0.4049999999999997 6.49196484375 0.3869999999999997 Q 6.50396484375 0.36899999999999966 6.50396484375 0.33599999999999974 Q 6.50396484375 0.3059999999999997 6.49421484375 0.28874999999999973 Q 6.4844648437500005 0.27149999999999974 6.46871484375 0.26324999999999976 Q 6.45296484375 0.25499999999999967 6.43346484375 0.25499999999999967 L 6.2249648437500005 0.25499999999999967 M 7.730968505859376 0.8159999999999997 L 7.730968505859376 1.0709999999999997 L 6.971968505859375 1.0709999999999997 L 6.971968505859375 0.005999999999999783 L 7.717468505859375 0.005999999999999783 L 7.717468505859375 0.2609999999999997 L 7.264468505859376 0.2609999999999997 L 7.264468505859376 0.4109999999999997 L 7.651468505859375 0.4109999999999997 L 7.651468505859375 0.6479999999999997 L 7.264468505859376 0.6479999999999997 L 7.264468505859376 0.8159999999999997 L 7.730968505859376 0.8159999999999997" fill="#390c14" fill-rule="nonzero"></path></g><g></g></g><defs><clipPath id="SvgjsClipPath1002"><path d=" M 0.5208895994268792 -6.98268689052298 h 6.734166601927491 v 6.73268689052298 h -6.734166601927491 Z"></path></clipPath><clipPath id="SvgjsClipPath10009275b70b-616b-4411-84e9-1931d101fa25"><path d=" M 0.5208895994268792 -6.98268689052298 L 7.25505620135437 -6.98268689052298 L 7.25505620135437 -0.25 L 0.5208895994268792 -0.25 Z"></path></clipPath></defs></svg>